<svg width="36" height="36" viewBox="0 0 36 36" fill="none" xmlns="http://www.w3.org/2000/svg">
<path d="M30.7192 26.5617H28.6405V8.68478C28.6392 7.58253 28.2008 6.52577 27.4214 5.74636C26.642 4.96696 25.5853 4.52855 24.483 4.52734L8.68478 4.52734C7.58253 4.52855 6.52577 4.96696 5.74636 5.74636C4.96696 6.52577 4.52855 7.58253 4.52734 8.68478C4.52734 8.79504 4.57115 8.90078 4.64911 8.97875C4.72708 9.05672 4.83283 9.10052 4.94309 9.10052H12.0107V15.7724C12.0107 15.8826 12.0545 15.9884 12.1325 16.0663C12.2105 16.1443 12.3162 16.1881 12.4265 16.1881C12.5367 16.1881 12.6425 16.1443 12.7204 16.0663C12.7984 15.9884 12.8422 15.8826 12.8422 15.7724V8.68478C12.8416 8.03833 12.6899 7.40096 12.3993 6.82351C12.1087 6.24606 11.6872 5.7445 11.1684 5.35883H24.483C25.3648 5.35982 26.2102 5.71055 26.8337 6.33407C27.4572 6.95759 27.808 7.80298 27.809 8.68478V26.5617H19.9098C19.7996 26.5617 19.6938 26.6055 19.6159 26.6835C19.5379 26.7615 19.4941 26.8672 19.4941 26.9775C19.4945 27.7231 19.2443 28.4473 18.7837 29.0336C18.3231 29.62 17.6788 30.0346 16.9543 30.2109C16.2297 30.3871 15.467 30.3148 14.7885 30.0055C14.1101 29.6962 13.5552 29.1678 13.2131 28.5053C13.1623 28.4074 13.0748 28.3337 12.9697 28.3003C12.8646 28.2669 12.7505 28.2767 12.6526 28.3274C12.5547 28.3781 12.481 28.4657 12.4476 28.5708C12.4142 28.6759 12.424 28.7899 12.4747 28.8878C12.8241 29.5659 13.3537 30.1344 14.0054 30.5309C14.657 30.9273 15.4054 31.1363 16.1682 31.1349H26.9775C28.0797 31.1337 29.1365 30.6953 29.9159 29.9159C30.6953 29.1365 31.1337 28.0797 31.1349 26.9775C31.1349 26.8672 31.0911 26.7615 31.0131 26.6835C30.9352 26.6055 30.8294 26.5617 30.7192 26.5617ZM11.9845 8.26903H5.38461C5.48569 7.46513 5.87675 6.72577 6.48435 6.18978C7.09196 5.65378 7.87433 5.35802 8.68457 5.35802C9.4948 5.35802 10.2772 5.65378 10.8848 6.18978C11.4924 6.72577 11.8834 7.46513 11.9845 8.26903ZM26.9775 30.3034H18.6585C19.1194 29.9587 19.5037 29.5221 19.7871 29.0211C20.0705 28.5202 20.2468 27.9658 20.3048 27.3932H30.2772C30.175 28.1966 29.7837 28.9351 29.1763 29.4708C28.569 30.0064 27.7873 30.3024 26.9775 30.3034Z" fill="white"/>
<path d="M16.1683 15.5074H24.4832C24.5935 15.5074 24.6992 15.4636 24.7772 15.3856C24.8551 15.3077 24.8989 15.2019 24.8989 15.0917C24.8989 14.9814 24.8551 14.8757 24.7772 14.7977C24.6992 14.7197 24.5935 14.6759 24.4832 14.6759H16.1683C16.0581 14.6759 15.9523 14.7197 15.8744 14.7977C15.7964 14.8757 15.7526 14.9814 15.7526 15.0917C15.7526 15.2019 15.7964 15.3077 15.8744 15.3856C15.9523 15.4636 16.0581 15.5074 16.1683 15.5074ZM24.4832 17.4477H17.4156C17.3053 17.4477 17.1995 17.4915 17.1216 17.5694C17.0436 17.6474 16.9998 17.7532 16.9998 17.8634C16.9998 17.9737 17.0436 18.0794 17.1216 18.1574C17.1995 18.2354 17.3053 18.2792 17.4156 18.2792H24.4832C24.5935 18.2792 24.6992 18.2354 24.7772 18.1574C24.8551 18.0794 24.8989 17.9737 24.8989 17.8634C24.8989 17.7532 24.8551 17.6474 24.7772 17.5694C24.6992 17.4915 24.5935 17.4477 24.4832 17.4477ZM24.4832 20.219H19.0785C18.9683 20.219 18.8625 20.2628 18.7846 20.3408C18.7066 20.4188 18.6628 20.5245 18.6628 20.6348C18.6628 20.745 18.7066 20.8508 18.7846 20.9287C18.8625 21.0067 18.9683 21.0505 19.0785 21.0505H24.4832C24.5935 21.0505 24.6992 21.0067 24.7772 20.9287C24.8551 20.8508 24.8989 20.745 24.8989 20.6348C24.8989 20.5245 24.8551 20.4188 24.7772 20.3408C24.6992 20.2628 24.5935 20.219 24.4832 20.219ZM24.4832 22.9908H19.0785C18.9683 22.9908 18.8625 23.0346 18.7846 23.1126C18.7066 23.1905 18.6628 23.2963 18.6628 23.4065C18.6628 23.5168 18.7066 23.6225 18.7846 23.7005C18.8625 23.7785 18.9683 23.8223 19.0785 23.8223H24.4832C24.5935 23.8223 24.6992 23.7785 24.7772 23.7005C24.8551 23.6225 24.8989 23.5168 24.8989 23.4065C24.8989 23.2963 24.8551 23.1905 24.7772 23.1126C24.6992 23.0346 24.5935 22.9908 24.4832 22.9908ZM16.1683 9.9643H24.4832C24.5935 9.9643 24.6992 9.9205 24.7772 9.84253C24.8551 9.76456 24.8989 9.65882 24.8989 9.54856C24.8989 9.43829 24.8551 9.33255 24.7772 9.25458C24.6992 9.17661 24.5935 9.13281 24.4832 9.13281H16.1683C16.0581 9.13281 15.9523 9.17661 15.8744 9.25458C15.7964 9.33255 15.7526 9.43829 15.7526 9.54856C15.7526 9.65882 15.7964 9.76456 15.8744 9.84253C15.9523 9.9205 16.0581 9.9643 16.1683 9.9643ZM16.1683 12.7356H24.4832C24.5935 12.7356 24.6992 12.6918 24.7772 12.6139C24.8551 12.5359 24.8989 12.4302 24.8989 12.3199C24.8989 12.2096 24.8551 12.1039 24.7772 12.0259C24.6992 11.948 24.5935 11.9042 24.4832 11.9042H16.1683C16.0581 11.9042 15.9523 11.948 15.8744 12.0259C15.7964 12.1039 15.7526 12.2096 15.7526 12.3199C15.7526 12.4302 15.7964 12.5359 15.8744 12.6139C15.9523 12.6918 16.0581 12.7356 16.1683 12.7356ZM17.8313 22.2695C17.8313 21.2005 17.5143 20.1556 16.9205 19.2668C16.3266 18.378 15.4825 17.6853 14.4949 17.2762C13.5073 16.8671 12.4206 16.7601 11.3722 16.9687C10.3238 17.1772 9.36082 17.6919 8.60496 18.4478C7.84911 19.2037 7.33436 20.1667 7.12582 21.2151C6.91728 22.2635 7.02431 23.3502 7.43338 24.3377C7.84245 25.3253 8.53518 26.1694 9.42397 26.7633C10.3128 27.3572 11.3577 27.6741 12.4266 27.6741C13.8596 27.6726 15.2334 27.1027 16.2466 26.0894C17.2598 25.0762 17.8298 23.7024 17.8313 22.2695ZM12.4266 26.8426C11.5221 26.8426 10.638 26.5744 9.88592 26.0719C9.13386 25.5694 8.54771 24.8552 8.20157 24.0195C7.85544 23.1839 7.76488 22.2644 7.94133 21.3773C8.11779 20.4902 8.55334 19.6753 9.19291 19.0357C9.83248 18.3962 10.6473 17.9606 11.5345 17.7842C12.4216 17.6077 13.3411 17.6983 14.1767 18.0444C15.0124 18.3905 15.7266 18.9767 16.2291 19.7287C16.7316 20.4808 16.9998 21.365 16.9998 22.2695C16.9984 23.4819 16.5161 24.6443 15.6588 25.5016C14.8015 26.3589 13.6391 26.8412 12.4266 26.8426Z" fill="white"/>
<path d="M11.8673 20.5919H12.9865C13.1612 20.5849 13.3315 20.6473 13.4604 20.7655C13.5892 20.8836 13.6661 21.048 13.6741 21.2226C13.6741 21.3329 13.7179 21.4386 13.7959 21.5166C13.8739 21.5946 13.9796 21.6384 14.0899 21.6384C14.2002 21.6384 14.3059 21.5946 14.3839 21.5166C14.4618 21.4386 14.5056 21.3329 14.5056 21.2226C14.4974 20.8275 14.333 20.4517 14.0482 20.1776C13.7635 19.9036 13.3817 19.7535 12.9865 19.7604H12.8427V18.9431C12.8427 18.8328 12.7989 18.7271 12.7209 18.6491C12.6429 18.5711 12.5372 18.5273 12.4269 18.5273C12.3167 18.5273 12.2109 18.5711 12.1329 18.6491C12.055 18.7271 12.0112 18.8328 12.0112 18.9431V19.7604H11.8673C11.6702 19.7523 11.4735 19.7841 11.289 19.8539C11.1045 19.9237 10.936 20.0301 10.7937 20.1667C10.6514 20.3033 10.5381 20.4672 10.4608 20.6487C10.3834 20.8301 10.3435 21.0253 10.3435 21.2226C10.3435 21.4199 10.3834 21.6151 10.4608 21.7966C10.5381 21.978 10.6514 22.142 10.7937 22.2785C10.936 22.4151 11.1045 22.5215 11.289 22.5913C11.4735 22.6611 11.6702 22.6929 11.8673 22.6848H12.9865C13.074 22.677 13.1622 22.6875 13.2455 22.7157C13.3288 22.7438 13.4052 22.789 13.4701 22.8483C13.5349 22.9076 13.5867 22.9798 13.6221 23.0602C13.6575 23.1407 13.6758 23.2276 13.6758 23.3155C13.6758 23.4033 13.6575 23.4903 13.6221 23.5707C13.5867 23.6511 13.5349 23.7233 13.4701 23.7826C13.4052 23.8419 13.3288 23.8871 13.2455 23.9153C13.1622 23.9434 13.074 23.9539 12.9865 23.9461H11.8673C11.6927 23.9531 11.5223 23.8907 11.3935 23.7726C11.2646 23.6544 11.1878 23.4901 11.1797 23.3155C11.1797 23.2052 11.1359 23.0995 11.0579 23.0215C10.98 22.9435 10.8742 22.8997 10.7639 22.8997C10.6537 22.8997 10.5479 22.9435 10.47 23.0215C10.392 23.0995 10.3482 23.2052 10.3482 23.3155C10.3564 23.7106 10.5209 24.0864 10.8056 24.3604C11.0904 24.6345 11.4722 24.7845 11.8673 24.7776H12.0112V25.595C12.0112 25.7052 12.055 25.811 12.1329 25.889C12.2109 25.9669 12.3167 26.0107 12.4269 26.0107C12.5372 26.0107 12.6429 25.9669 12.7209 25.889C12.7989 25.811 12.8427 25.7052 12.8427 25.595V24.7776H12.9865C13.1836 24.7858 13.3803 24.754 13.5648 24.6842C13.7493 24.6144 13.9178 24.508 14.0601 24.3714C14.2025 24.2348 14.3157 24.0709 14.3931 23.8894C14.4704 23.708 14.5103 23.5127 14.5103 23.3155C14.5103 23.1182 14.4704 22.923 14.3931 22.7415C14.3157 22.56 14.2025 22.3961 14.0601 22.2595C13.9178 22.1229 13.7493 22.0166 13.5648 21.9467C13.3803 21.8769 13.1836 21.8451 12.9865 21.8533H11.8673C11.7798 21.8611 11.6916 21.8506 11.6083 21.8224C11.5251 21.7943 11.4486 21.7491 11.3838 21.6898C11.3189 21.6304 11.2671 21.5583 11.2317 21.4778C11.1963 21.3974 11.178 21.3105 11.178 21.2226C11.178 21.1347 11.1963 21.0478 11.2317 20.9674C11.2671 20.887 11.3189 20.8148 11.3838 20.7555C11.4486 20.6961 11.5251 20.651 11.6083 20.6228C11.6916 20.5946 11.7798 20.5841 11.8673 20.5919Z" fill="white"/>
</svg>
