<svg width="37" height="36" viewBox="0 0 37 36" fill="none" xmlns="http://www.w3.org/2000/svg">
<path d="M33.3841 8.45709C33.3521 8.40221 33.3091 8.35457 33.2577 8.31719C33.2064 8.2798 33.1478 8.25349 33.0857 8.23991L17.9782 3.089C17.9199 3.06922 17.8583 3.06127 17.7969 3.0656C17.7355 3.06993 17.6756 3.08646 17.6207 3.11423L4.16695 9.91771C4.08829 9.95782 4.02282 10.0197 3.97831 10.0959C3.93381 10.1722 3.91215 10.2596 3.91591 10.3478C3.91967 10.4361 3.94869 10.5213 3.99952 10.5935C4.05035 10.6657 4.12085 10.7218 4.20263 10.7551L9.25325 12.7909V17.6084C9.25355 17.7021 9.28238 17.7935 9.3359 17.8704C9.38943 17.9474 9.46511 18.0062 9.55288 18.0391L12.9829 19.3249C13.0526 19.351 13.1276 19.3599 13.2014 19.3507C13.2753 19.3416 13.3458 19.3147 13.4071 19.2724C13.4683 19.2301 13.5184 19.1736 13.553 19.1078C13.5877 19.0419 13.6059 18.9687 13.6062 18.8943L13.6252 14.545L19.5317 16.9254C19.5971 16.9522 19.6678 16.9634 19.7383 16.9582C19.8087 16.9529 19.877 16.9314 19.9378 16.8953L32.5136 9.50241V24.0532L20.1672 31.3285V18.1246C20.1672 18.0022 20.1186 17.8848 20.0321 17.7983C19.9456 17.7118 19.8282 17.6631 19.7058 17.6631C19.5834 17.6631 19.4661 17.7118 19.3795 17.7983C19.293 17.8848 19.2444 18.0022 19.2444 18.1246V31.4528L4.83634 25.6442V12.1929C4.83634 12.0705 4.78773 11.9532 4.70119 11.8666C4.61465 11.7801 4.49728 11.7315 4.3749 11.7315C4.25252 11.7315 4.13515 11.7801 4.04861 11.8666C3.96208 11.9532 3.91346 12.0705 3.91346 12.1929V25.9562C3.91286 26.0487 3.94012 26.1392 3.99169 26.216C4.04327 26.2929 4.11677 26.3524 4.20263 26.3868L19.5305 32.5627C19.5844 32.5847 19.642 32.596 19.7003 32.596C19.7846 32.5956 19.8673 32.5731 19.9402 32.5308L33.2094 24.717C33.2786 24.6763 33.336 24.6183 33.3758 24.5485C33.4157 24.4788 33.4366 24.3999 33.4364 24.3196V8.78133C33.4601 8.67051 33.4415 8.55484 33.3841 8.45709ZM19.664 15.9878L14.2657 13.8123L25.1139 7.80185C25.1674 7.77274 25.2146 7.73333 25.2527 7.6859C25.2909 7.63847 25.3193 7.58395 25.3363 7.52548C25.3534 7.46702 25.3586 7.40576 25.3519 7.34525C25.3451 7.28474 25.3264 7.22617 25.2969 7.17291C25.2674 7.11965 25.2276 7.07276 25.1799 7.03494C25.1322 6.99712 25.0775 6.96911 25.0189 6.95254C24.9603 6.93597 24.899 6.93115 24.8385 6.93838C24.7781 6.9456 24.7196 6.96472 24.6666 6.99463C24.6666 6.99463 12.9663 13.4726 12.9036 13.5133C12.8418 13.5549 12.7914 13.6112 12.7569 13.6772C12.7223 13.7431 12.7046 13.8166 12.7054 13.891L12.6864 18.231L10.1761 17.2903V12.7626L21.7558 6.76699C21.8618 6.70925 21.9409 6.61232 21.9762 6.49695C22.0115 6.38159 22.0003 6.25698 21.9449 6.14982C21.8894 6.04265 21.7942 5.96146 21.6797 5.92364C21.5651 5.88582 21.4403 5.89437 21.3319 5.94747L9.6907 11.9745L5.49097 10.2813L17.8637 4.02542L31.8798 8.80471L19.664 15.9878Z" fill="white"/>
</svg>
