<svg width="98" height="98" viewBox="0 0 98 98" fill="none" xmlns="http://www.w3.org/2000/svg">
<circle cx="49.1172" cy="48.9294" r="48.1277" fill="url(#paint0_linear_2813_7343)"/>
<g clip-path="url(#clip0_2813_7343)">
<path d="M38.5978 53.9987L36.927 55.6205C36.691 55.8498 36.558 56.1644 36.558 56.4932V57.1853C36.558 57.857 37.1027 58.4017 37.7746 58.4017H47.7517C48.4245 58.4017 48.9688 57.857 48.9688 57.1853V56.2895C48.9688 55.6178 48.4245 55.0728 47.7517 55.0728H42.2391L42.391 54.9331C45.9939 51.4619 48.544 48.7298 48.544 45.1723C48.544 42.328 46.6955 39.458 42.5643 39.458C40.7608 39.458 38.9946 40.0368 37.5906 41.0872C37.1347 41.4292 36.9764 42.0422 37.2111 42.5621L37.518 43.2407C37.667 43.5707 37.9546 43.8172 38.3042 43.9132C38.6517 44.0092 39.0268 43.9443 39.3234 43.7372C40.2262 43.1068 41.1555 42.7869 42.0864 42.7869C43.8983 42.7869 44.8167 43.6878 44.8167 45.4521C44.7925 47.843 42.8093 49.9894 38.5978 53.9987Z" fill="white"/>
<path d="M56.7827 39.7542C56.7503 39.7513 56.7175 39.75 56.685 39.75H56.3135C55.9157 39.75 55.5436 39.9443 55.3162 40.2697L47.865 50.933C47.7223 51.1374 47.6459 51.3807 47.6459 51.6299V52.4847C47.6459 53.1566 48.1902 53.7013 48.8621 53.7013H55.6654V57.1851C55.6654 57.8568 56.2098 58.4015 56.8816 58.4015H58.0433C58.7148 58.4015 59.2601 57.8568 59.2601 57.1851V53.7013H60.4595C61.1314 53.7013 61.6763 53.1566 61.6763 52.4847V51.6948C61.6763 51.0233 61.1314 50.4784 60.4595 50.4784H59.2601V40.9666C59.2601 40.2952 58.7148 39.7502 58.0433 39.7502H56.8816C56.8484 39.7502 56.8151 39.7515 56.7827 39.7542ZM55.6654 50.4784H51.9918C52.9251 49.1232 54.5208 46.7976 55.6654 45.0787V50.4784Z" fill="white"/>
<path d="M49.1629 76.8593C34.8449 76.8593 23.1961 65.2105 23.1961 50.8925C23.1961 37.3346 33.6416 26.1722 46.9069 25.0246V29.1639C46.9069 29.4579 47.0692 29.7282 47.3285 29.8663C47.446 29.929 47.5746 29.9597 47.7028 29.9597C47.8579 29.9597 48.013 29.9143 48.1465 29.8244L57.5452 23.5097C57.7653 23.362 57.8973 23.1142 57.8973 22.849C57.8973 22.584 57.7653 22.3361 57.5452 22.1883L48.1465 15.8737C47.9025 15.7097 47.5878 15.6933 47.3283 15.832C47.069 15.9703 46.9067 16.2405 46.9067 16.5344V19.7452C30.7364 20.9054 17.9337 34.4311 17.9337 50.8923C17.9337 68.1121 31.9434 82.1213 49.1627 82.1213C57.1351 82.1213 64.7249 79.1175 70.5339 73.6633L66.9323 69.827C62.1024 74.3619 55.792 76.8593 49.1629 76.8593Z" fill="white"/>
<path d="M75.8203 34.6179C74.7445 32.8584 73.4864 31.197 72.0823 29.6807L68.2211 33.2558C69.3897 34.5177 70.4358 35.8999 71.3312 37.3635L75.8203 34.6179Z" fill="white"/>
<path d="M74.8929 47.3654L80.1073 46.6575C79.8291 44.6074 79.3443 42.5798 78.6663 40.6309L73.6963 42.3592C74.2591 43.9776 74.6616 45.6619 74.8929 47.3654Z" fill="white"/>
<path d="M67.074 25.3072C65.3806 24.1194 63.5635 23.0979 61.6729 22.2705L59.5634 27.0913C61.1344 27.779 62.6449 28.6281 64.0524 29.6153L67.074 25.3072Z" fill="white"/>
<path d="M69.2229 67.3812L73.2859 70.7252C74.6002 69.1282 75.7592 67.3959 76.7301 65.5763L72.0878 63.0986C71.2804 64.6116 70.3166 66.0526 69.2229 67.3812Z" fill="white"/>
<path d="M75.0533 52.9004C74.9224 54.6173 74.6195 56.3238 74.1539 57.9717L79.2176 59.4034C79.7788 57.4194 80.1429 55.3663 80.3008 53.3014L75.0533 52.9004Z" fill="white"/>
</g>
<defs>
<linearGradient id="paint0_linear_2813_7343" x1="49.1172" y1="0.801758" x2="49.1172" y2="97.0571" gradientUnits="userSpaceOnUse">
<stop stop-color="#416CEC"/>
<stop offset="1" stop-color="#00289D"/>
</linearGradient>
<clipPath id="clip0_2813_7343">
<rect width="66.383" height="66.383" fill="white" transform="translate(15.9257 15.7383)"/>
</clipPath>
</defs>
</svg>
