<svg width="65" height="65" viewBox="0 0 65 65" fill="none" xmlns="http://www.w3.org/2000/svg">
<path d="M9.70263 0.885834C6.01403 2.3292 2.96692 5.13575 1.52355 8.34323C0.160374 11.3101 0 13.8761 0 33.4418C0 54.4508 0.080187 55.3328 1.60374 56.1347C3.52823 57.1771 4.24991 56.7762 12.6696 51.1631C15.877 48.9981 19.0845 47.3943 19.6458 47.6349C20.2873 47.8754 25.74 51.3235 31.8343 55.413C37.8483 59.5026 44.3434 63.2714 46.1877 63.8327C52.2018 65.5968 59.178 62.7902 62.3053 57.2573C64.0694 54.2102 64.1496 53.4083 64.1496 32.0786C64.1496 9.38566 63.9893 8.02248 61.0223 8.02248C60.3007 8.02248 56.5319 10.1875 52.6027 12.8337C48.6735 15.3997 45.0651 17.3242 44.584 17.0836C44.1029 16.7629 38.8105 13.3148 32.8767 9.30547C19.1647 0.164146 15.1553 -1.27922 9.70263 0.885834ZM26.4617 16.9232C31.8343 20.4515 36.004 23.659 35.603 23.9797C34.4002 25.1023 10.5045 40.8992 10.0234 40.8992C9.78282 40.8992 9.62244 34.8851 9.62244 27.4277C9.62244 7.30079 10.6649 6.57911 26.4617 16.9232ZM54.5272 37.6917C54.5272 50.281 54.3668 51.4839 52.9234 52.9272C52.0414 53.8093 50.598 54.531 49.7962 54.531C48.9141 54.531 43.7019 51.564 38.169 47.8754L27.9853 41.2199L40.6548 32.6399C47.6311 27.9891 53.5649 24.1401 53.9659 24.1401C54.2866 24.0599 54.5272 30.1541 54.5272 37.6917Z" fill="#0047FF"/>
</svg>
