<svg width="135" height="37" viewBox="0 0 135 37" fill="none" xmlns="http://www.w3.org/2000/svg">
<path d="M37.6701 0.917559C37.2428 1.34493 36.9375 2.19967 36.9375 2.93231C36.9375 4.70284 38.0975 5.67969 40.1123 5.67969C42.3102 5.67969 43.5312 3.48178 42.4933 1.46704C41.6996 0.0628176 38.8912 -0.3035 37.6701 0.917559Z" fill="#231F20"/>
<path d="M69.3026 5.31331C69.3026 8.54911 69.2416 8.73227 67.7763 8.73227C66.4332 8.73227 66.25 8.97648 66.25 10.8081C66.25 12.5176 66.4942 12.9449 67.6542 13.1281C68.8753 13.3112 68.9974 13.6776 69.3026 18.2565C69.669 23.8734 70.5237 25.4608 73.9427 26.3766C77.1174 27.2313 78.4606 26.6208 78.4606 24.3618C78.4606 22.7744 78.1553 22.286 76.629 21.7365C74.8585 21.065 74.7974 20.9429 74.7974 17.0355V13.006H76.8122C78.5827 13.006 78.8269 12.8228 78.7048 11.6018C78.6437 10.8691 78.5216 9.89228 78.5216 9.46491C78.4606 9.09859 77.6669 8.73227 76.6901 8.73227C74.9195 8.73227 74.8585 8.61016 74.6753 5.49647L74.4921 2.32171L71.9279 2.13855L69.3026 1.95539V5.31331Z" fill="#231F20"/>
<path d="M0.917969 22.7742V36.8164H3.66535H6.41273V31.0164C6.41273 25.3385 6.65694 24.4837 8.12222 25.949C8.48853 26.3153 10.0149 26.6206 11.5412 26.5595C16.5475 26.4985 19.8444 22.8963 19.8444 17.4626C19.8444 14.1658 18.5012 11.6626 15.8149 9.89206C13.8612 8.60995 10.0759 8.36574 8.06116 9.40364C7.08432 9.95311 6.718 9.95311 6.53484 9.40364C6.41273 9.03732 5.06957 8.73205 3.6043 8.73205H0.917969V22.7742ZM13.1286 14.8373C14.5938 16.3026 14.7159 18.9279 13.3117 20.4542C12.0907 21.7974 9.03801 21.8584 7.51169 20.5153C5.06957 18.3174 7.02326 13.6163 10.3812 13.6163C11.2359 13.6163 12.457 14.1658 13.1286 14.8373Z" fill="#231F20"/>
<path d="M23.5078 17.5887V26.4414H26.2552H29.0026V21.374C29.0026 16.8561 29.1857 16.1235 30.4068 14.9635C31.2005 14.2308 32.5436 13.6203 33.4594 13.6203C34.9858 13.6203 35.1079 13.4371 35.1079 11.1782C35.1079 8.91921 34.9858 8.73605 33.3984 8.73605C32.4215 8.73605 31.0784 9.28553 30.3457 9.95711L29.0026 11.2392V9.95711C29.0026 8.91921 28.6363 8.73605 26.2552 8.73605H23.5078V17.5887Z" fill="#231F20"/>
<path d="M37.3649 9.16342C37.1207 9.34658 36.9375 13.3761 36.9375 18.0161V26.4414H39.6849H42.4323V17.5887V8.73605H40.1123C38.8301 8.73605 37.548 8.91921 37.3649 9.16342Z" fill="#231F20"/>
<path d="M47.3164 17.5887V26.4414H50.0638H52.8112V21.0077C52.8112 15.2687 53.4828 13.6203 55.8028 13.6203C57.8175 13.6203 58.3059 14.9635 58.3059 20.7635V26.4414H61.3586H64.4112V21.0687C64.4112 18.1382 64.106 14.7192 63.8007 13.4982C62.5796 9.28553 58.6112 7.6371 54.6428 9.65185C52.9943 10.5066 52.8112 10.5066 52.8112 9.65185C52.8112 8.98026 52.1396 8.73605 50.0638 8.73605H47.3164V17.5887Z" fill="#231F20"/>
<path d="M81.5078 17.5887V26.4414H84.2552H87.0026V21.5572C87.0026 17.1003 87.1857 16.4898 88.5289 15.1466C89.4447 14.1698 90.7268 13.6203 91.8868 13.6203C93.5963 13.6203 93.7184 13.4982 93.7184 11.1782C93.7184 8.91921 93.5963 8.73605 91.9479 8.73605C91.0321 8.73605 89.5057 9.28553 88.59 10.0182L87.0026 11.2392V10.0182C87.0026 8.91921 86.6363 8.73605 84.2552 8.73605H81.5078V17.5887Z" fill="#231F20"/>
<path d="M98.6033 9.89269C92.8033 12.9453 92.7422 22.0422 98.4812 25.4001C100.984 26.8654 106.235 26.9265 108.86 25.5833C110.448 24.7286 112.645 21.9201 112.645 20.638C112.645 20.4549 111.485 20.3327 110.142 20.3327C108.433 20.3327 107.334 20.6991 106.845 21.3706C105.746 22.8359 101.778 22.7749 100.679 21.2485C98.8475 18.8064 99.458 18.5012 106.54 18.5012H113.317L112.89 16.1811C112.401 13.1896 111.18 11.358 108.799 9.95375C106.235 8.36637 101.412 8.36637 98.6033 9.89269ZM106.418 13.739C107.761 15.0822 107.212 15.4485 103.793 15.4485C101.961 15.4485 100.435 15.2043 100.435 14.9601C100.435 13.9222 101.961 13.0064 103.793 13.0064C104.831 13.0064 105.991 13.3117 106.418 13.739Z" fill="#231F20"/>
<path d="M119.301 10.137C115.211 12.8233 113.99 17.9517 116.432 22.2254C119.729 28.0865 129.558 28.0865 132.977 22.2865L134.137 20.3328H131.573C129.925 20.3328 128.459 20.7602 127.482 21.5539C126.628 22.2254 125.407 22.7749 124.735 22.7749C123.514 22.7749 120.583 20.2107 120.583 19.1117C120.583 18.7454 123.026 18.5012 127.299 18.5012H134.015V16.7917C134.015 14.2886 132.061 11.1138 129.68 9.83169C126.689 8.24431 121.927 8.36642 119.301 10.137ZM127.177 13.7391C128.52 15.0822 127.971 15.4486 124.552 15.4486C121.133 15.4486 120.339 14.777 122.293 13.678C123.697 12.8233 126.261 12.8233 127.177 13.7391Z" fill="#231F20"/>
</svg>
