<svg width="176" height="177" viewBox="0 0 176 177" fill="none" xmlns="http://www.w3.org/2000/svg">
<path d="M163.694 66.4575L163.698 66.4645L163.702 66.4715L172.67 82.4587C172.671 82.4612 172.673 82.4636 172.674 82.4661C173.546 84.056 174.043 86.3447 174.043 88.7309C174.043 91.1272 173.542 93.349 172.691 94.8202L172.684 94.8314L172.678 94.8427L163.702 110.844L163.698 110.851L163.694 110.858C161.493 114.859 158.505 121.819 157.284 126.288C157.282 126.293 157.281 126.298 157.28 126.303L152.214 143.838L152.21 143.851L152.206 143.865C151.733 145.6 150.491 147.565 148.797 149.259C147.103 150.953 145.138 152.195 143.403 152.668L143.39 152.672L143.376 152.676L125.841 157.741C125.836 157.743 125.831 157.744 125.826 157.745C121.357 158.967 114.397 161.955 110.396 164.155L110.389 164.159L110.382 164.163L94.3951 173.132C94.3926 173.133 94.3902 173.134 94.3877 173.136C92.7927 174.011 90.5501 174.504 88.196 174.504C85.8419 174.504 83.5994 174.011 82.0044 173.136C82.0019 173.134 81.9994 173.133 81.997 173.132L66.0098 164.163L66.0028 164.159L65.9957 164.155C61.9952 161.955 55.0351 158.967 50.5655 157.745C50.5607 157.744 50.5558 157.743 50.5509 157.741L33.0162 152.676L33.0024 152.672L32.9886 152.668C31.2536 152.195 29.2889 150.953 27.595 149.259C25.901 147.565 24.6591 145.6 24.1859 143.865L24.1822 143.851L24.1782 143.838L19.1124 126.303C19.1111 126.298 19.1098 126.293 19.1085 126.289C17.8873 121.819 14.8987 114.859 12.6983 110.858L12.6944 110.851L12.6905 110.844L3.72201 94.8568C3.72076 94.8545 3.71951 94.8522 3.71826 94.85C2.8431 93.255 2.34933 91.0121 2.34933 88.6578C2.34933 86.3034 2.8431 84.0606 3.71826 82.4655C3.71951 82.4633 3.72076 82.461 3.72201 82.4587L12.6905 66.4715L12.6944 66.4645L12.6983 66.4575C14.8988 62.4567 17.8873 55.4961 19.1086 51.0266L24.1782 33.4779L24.1822 33.4641L24.1859 33.4503C24.6591 31.7153 25.901 29.7506 27.595 28.0567C29.2889 26.3628 31.2536 25.1209 32.9886 24.6477L33.0024 24.6439L33.0162 24.6399L50.5649 19.5703C55.0344 18.3491 61.9949 15.3605 65.9957 13.16L66.0028 13.1562L66.0098 13.1522L81.997 4.18374C81.9993 4.18249 82.0015 4.18124 82.0038 4.17999C83.5988 3.30483 85.8416 2.81106 88.196 2.81106C90.5504 2.81106 92.7932 3.30483 94.3882 4.17999C94.3905 4.18124 94.3928 4.18249 94.3951 4.18374L110.382 13.1522L110.389 13.1562L110.396 13.16C114.397 15.3605 121.357 18.349 125.827 19.5703C125.832 19.5716 125.836 19.5728 125.841 19.5741L143.376 24.6399L143.39 24.6439L143.403 24.6477C145.138 25.1209 147.103 26.3628 148.797 28.0567C150.491 29.7506 151.733 31.7153 152.206 33.4503L152.21 33.4641L152.214 33.4779L157.28 51.0126C157.281 51.0175 157.282 51.0223 157.284 51.0272C158.505 55.4968 161.493 62.4569 163.694 66.4575Z" fill="#1E1E1E" stroke="#0047FF" stroke-width="3.83244"/>
<path d="M53.2856 76.2817C53.2334 75.7548 53.0091 75.3454 52.6128 75.0536C52.2165 74.7618 51.6786 74.6159 50.9992 74.6159C50.5376 74.6159 50.1478 74.6812 49.8299 74.8119C49.512 74.9382 49.2681 75.1146 49.0982 75.341C48.9327 75.5675 48.85 75.8244 48.85 76.1119C48.8413 76.3514 48.8914 76.5604 49.0003 76.739C49.1135 76.9176 49.2681 77.0722 49.4641 77.2028C49.66 77.3291 49.8865 77.4402 50.1435 77.536C50.4004 77.6274 50.6748 77.7058 50.9666 77.7711L52.1685 78.0586C52.7521 78.1892 53.2878 78.3634 53.7756 78.5812C54.2633 78.7989 54.6858 79.0668 55.0429 79.3847C55.4 79.7026 55.6765 80.0771 55.8725 80.5083C56.0728 80.9394 56.1752 81.4337 56.1795 81.9912C56.1752 82.8099 55.9662 83.5198 55.5524 84.1208C55.143 84.7174 54.5508 85.1813 53.7756 85.5122C53.0047 85.8389 52.0749 86.0022 50.9862 86.0022C49.9061 86.0022 48.9654 85.8367 48.1641 85.5057C47.3671 85.1747 46.7443 84.6848 46.2958 84.0359C45.8516 83.3826 45.6186 82.5748 45.5968 81.6123H48.3339C48.3644 82.0609 48.4929 82.4354 48.7194 82.7359C48.9502 83.032 49.2572 83.2563 49.6404 83.4088C50.028 83.5568 50.4657 83.6309 50.9535 83.6309C51.4325 83.6309 51.8485 83.5612 52.2012 83.4218C52.5583 83.2825 52.8349 83.0887 53.0308 82.8404C53.2268 82.5922 53.3248 82.3069 53.3248 81.9847C53.3248 81.6842 53.2355 81.4316 53.057 81.2269C52.8828 81.0222 52.6258 80.848 52.2861 80.7043C51.9508 80.5606 51.5392 80.4299 51.0515 80.3123L49.5947 79.9465C48.4668 79.6721 47.5762 79.2432 46.9229 78.6596C46.2696 78.076 45.9452 77.2899 45.9495 76.3013C45.9452 75.4913 46.1608 74.7836 46.5963 74.1782C47.0361 73.5729 47.6393 73.1004 48.4058 72.7607C49.1723 72.421 50.0433 72.2511 51.0188 72.2511C52.0118 72.2511 52.8784 72.421 53.6188 72.7607C54.3635 73.1004 54.9427 73.5729 55.3564 74.1782C55.7702 74.7836 55.9836 75.4847 55.9966 76.2817H53.2856ZM58.0822 85.8127V72.434H63.3605C64.3752 72.434 65.2397 72.6278 65.9539 73.0154C66.6681 73.3987 67.2125 73.9322 67.587 74.6159C67.9659 75.2953 68.1554 76.0792 68.1554 76.9676C68.1554 77.8561 67.9638 78.64 67.5805 79.3194C67.1973 79.9988 66.642 80.5279 65.9147 80.9068C65.1918 81.2857 64.3164 81.4751 63.2886 81.4751H59.9243V79.2083H62.8313C63.3757 79.2083 63.8243 79.1147 64.177 78.9274C64.5342 78.7358 64.7998 78.4723 64.974 78.137C65.1526 77.7973 65.2419 77.4075 65.2419 76.9676C65.2419 76.5234 65.1526 76.1358 64.974 75.8048C64.7998 75.4695 64.5342 75.2104 64.177 75.0275C63.8199 74.8402 63.367 74.7466 62.8183 74.7466H60.9108V85.8127H58.0822ZM69.9927 85.8127V72.434H79.0076V74.7662H72.8213V77.9541H78.5438V80.2862H72.8213V83.4806H79.0337V85.8127H69.9927ZM93.0608 77.1179H90.1995C90.1473 76.7477 90.0406 76.4189 89.8794 76.1315C89.7183 75.8397 89.5114 75.5914 89.2589 75.3868C89.0063 75.1821 88.7145 75.0253 88.3835 74.9164C88.0569 74.8075 87.7019 74.7531 87.3187 74.7531C86.6262 74.7531 86.0231 74.9251 85.5092 75.2692C84.9953 75.6089 84.5968 76.1053 84.3137 76.7586C84.0306 77.4075 83.8891 78.1958 83.8891 79.1234C83.8891 80.0771 84.0306 80.8785 84.3137 81.5274C84.6011 82.1763 85.0018 82.6662 85.5157 82.9972C86.0296 83.3282 86.6241 83.4937 87.2991 83.4937C87.678 83.4937 88.0286 83.4436 88.3508 83.3434C88.6775 83.2433 88.9671 83.0974 89.2197 82.9057C89.4723 82.7098 89.6813 82.4724 89.8468 82.1937C90.0166 81.915 90.1342 81.5971 90.1995 81.2399L93.0608 81.253C92.9868 81.8671 92.8017 82.4594 92.5055 83.0299C92.2138 83.596 91.8196 84.1034 91.3231 84.552C90.831 84.9962 90.2431 85.3489 89.5594 85.6102C88.88 85.8672 88.1113 85.9957 87.2534 85.9957C86.0601 85.9957 84.9931 85.7256 84.0524 85.1856C83.1161 84.6456 82.3757 83.8639 81.8313 82.8404C81.2913 81.817 81.0213 80.578 81.0213 79.1234C81.0213 77.6645 81.2957 76.4233 81.8444 75.3998C82.3931 74.3764 83.1378 73.5968 84.0785 73.0612C85.0192 72.5211 86.0775 72.2511 87.2534 72.2511C88.0286 72.2511 88.7471 72.36 89.4091 72.5778C90.0754 72.7955 90.6655 73.1134 91.1794 73.5315C91.6933 73.9452 92.1114 74.4526 92.4337 75.0536C92.7603 75.6546 92.9694 76.3427 93.0608 77.1179ZM97.9178 72.434V85.8127H95.0892V72.434H97.9178ZM102.551 85.8127H99.5199L104.138 72.434H107.784L112.396 85.8127H109.364L106.013 75.4913H105.909L102.551 85.8127ZM102.362 80.554H109.521V82.762H102.362V80.554ZM114.006 85.8127V72.434H116.834V83.4806H122.57V85.8127H114.006ZM131.701 76.2817C131.649 75.7548 131.424 75.3454 131.028 75.0536C130.632 74.7618 130.094 74.6159 129.415 74.6159C128.953 74.6159 128.563 74.6812 128.245 74.8119C127.927 74.9382 127.683 75.1146 127.514 75.341C127.348 75.5675 127.265 75.8244 127.265 76.1119C127.257 76.3514 127.307 76.5604 127.416 76.739C127.529 76.9176 127.683 77.0722 127.879 77.2028C128.075 77.3291 128.302 77.4402 128.559 77.536C128.816 77.6274 129.09 77.7058 129.382 77.7711L130.584 78.0586C131.167 78.1892 131.703 78.3634 132.191 78.5812C132.679 78.7989 133.101 79.0668 133.458 79.3847C133.815 79.7026 134.092 80.0771 134.288 80.5083C134.488 80.9394 134.591 81.4337 134.595 81.9912C134.591 82.8099 134.381 83.5198 133.968 84.1208C133.558 84.7174 132.966 85.1813 132.191 85.5122C131.42 85.8389 130.49 86.0022 129.401 86.0022C128.321 86.0022 127.381 85.8367 126.579 85.5057C125.782 85.1747 125.16 84.6848 124.711 84.0359C124.267 83.3826 124.034 82.5748 124.012 81.6123H126.749C126.78 82.0609 126.908 82.4354 127.135 82.7359C127.366 83.032 127.673 83.2563 128.056 83.4088C128.443 83.5568 128.881 83.6309 129.369 83.6309C129.848 83.6309 130.264 83.5612 130.617 83.4218C130.974 83.2825 131.25 83.0887 131.446 82.8404C131.642 82.5922 131.74 82.3069 131.74 81.9847C131.74 81.6842 131.651 81.4316 131.472 81.2269C131.298 81.0222 131.041 80.848 130.701 80.7043C130.366 80.5606 129.955 80.4299 129.467 80.3123L128.01 79.9465C126.882 79.6721 125.991 79.2432 125.338 78.6596C124.685 78.076 124.361 77.2899 124.365 76.3013C124.361 75.4913 124.576 74.7836 125.012 74.1782C125.451 73.5729 126.055 73.1004 126.821 72.7607C127.588 72.421 128.459 72.2511 129.434 72.2511C130.427 72.2511 131.294 72.421 132.034 72.7607C132.779 73.1004 133.358 73.5729 133.772 74.1782C134.186 74.7836 134.399 75.4847 134.412 76.2817H131.701ZM46.2517 96.434V109.813H43.4231V96.434H46.2517ZM59.7692 96.434V109.813H57.326L51.5055 101.392H51.4075V109.813H48.5789V96.434H51.0613L56.8361 104.848H56.9537V96.434H59.7692ZM73.9106 101.118H71.0493C70.9971 100.748 70.8904 100.419 70.7292 100.131C70.5681 99.8397 70.3612 99.5914 70.1086 99.3868C69.856 99.1821 69.5642 99.0253 69.2333 98.9164C68.9066 98.8075 68.5517 98.7531 68.1685 98.7531C67.476 98.7531 66.8728 98.9251 66.3589 99.2692C65.845 99.6089 65.4465 100.105 65.1635 100.759C64.8804 101.408 64.7389 102.196 64.7389 103.123C64.7389 104.077 64.8804 104.878 65.1635 105.527C65.4509 106.176 65.8516 106.666 66.3655 106.997C66.8794 107.328 67.4738 107.494 68.1489 107.494C68.5277 107.494 68.8783 107.444 69.2006 107.343C69.5272 107.243 69.8168 107.097 70.0694 106.906C70.322 106.71 70.5311 106.472 70.6966 106.194C70.8664 105.915 70.984 105.597 71.0493 105.24L73.9106 105.253C73.8365 105.867 73.6515 106.459 73.3553 107.03C73.0635 107.596 72.6694 108.103 72.1729 108.552C71.6808 108.996 71.0929 109.349 70.4091 109.61C69.7297 109.867 68.9611 109.996 68.1031 109.996C66.9098 109.996 65.8429 109.726 64.9022 109.186C63.9658 108.646 63.2255 107.864 62.6811 106.84C62.1411 105.817 61.8711 104.578 61.8711 103.123C61.8711 101.664 62.1454 100.423 62.6942 99.3998C63.2429 98.3764 63.9876 97.5968 64.9283 97.0612C65.869 96.5211 66.9273 96.2511 68.1031 96.2511C68.8783 96.2511 69.5969 96.36 70.2589 96.5778C70.9252 96.7955 71.5153 97.1134 72.0292 97.5315C72.5431 97.9452 72.9612 98.4526 73.2835 99.0536C73.6101 99.6546 73.8191 100.343 73.9106 101.118ZM75.9389 109.813V96.434H78.7675V107.481H84.5031V109.813H75.9389ZM94.6401 96.434H97.4687V105.122C97.4687 106.098 97.2357 106.951 96.7697 107.683C96.308 108.415 95.6613 108.985 94.8295 109.395C93.9977 109.8 93.0287 110.002 91.9225 110.002C90.812 110.002 89.8408 109.8 89.009 109.395C88.1772 108.985 87.5304 108.415 87.0688 107.683C86.6072 106.951 86.3764 106.098 86.3764 105.122V96.434H89.205V104.881C89.205 105.39 89.316 105.843 89.5381 106.239C89.7646 106.636 90.0825 106.947 90.4919 107.174C90.9013 107.4 91.3781 107.513 91.9225 107.513C92.4712 107.513 92.9481 107.4 93.3531 107.174C93.7625 106.947 94.0783 106.636 94.3004 106.239C94.5268 105.843 94.6401 105.39 94.6401 104.881V96.434ZM104.539 109.813H99.7959V96.434H104.578C105.923 96.434 107.082 96.7019 108.053 97.2375C109.024 97.7689 109.771 98.5332 110.294 99.5305C110.821 100.528 111.084 101.721 111.084 103.11C111.084 104.504 110.821 105.702 110.294 106.703C109.771 107.705 109.02 108.474 108.04 109.009C107.064 109.545 105.897 109.813 104.539 109.813ZM102.624 107.389H104.421C105.257 107.389 105.96 107.241 106.531 106.945C107.106 106.644 107.537 106.181 107.824 105.554C108.116 104.922 108.262 104.108 108.262 103.11C108.262 102.122 108.116 101.314 107.824 100.687C107.537 100.06 107.108 99.598 106.538 99.3018C105.967 99.0057 105.264 98.8576 104.427 98.8576H102.624V107.389ZM113.179 109.813V96.434H122.194V98.7662H116.008V101.954H121.731V104.286H116.008V107.481H122.221V109.813H113.179ZM131.701 100.282C131.649 99.7548 131.424 99.3454 131.028 99.0536C130.632 98.7618 130.094 98.6159 129.415 98.6159C128.953 98.6159 128.563 98.6812 128.245 98.8119C127.927 98.9382 127.683 99.1146 127.514 99.341C127.348 99.5675 127.265 99.8244 127.265 100.112C127.257 100.351 127.307 100.56 127.416 100.739C127.529 100.918 127.683 101.072 127.879 101.203C128.075 101.329 128.302 101.44 128.559 101.536C128.816 101.627 129.09 101.706 129.382 101.771L130.584 102.059C131.167 102.189 131.703 102.363 132.191 102.581C132.679 102.799 133.101 103.067 133.458 103.385C133.815 103.703 134.092 104.077 134.288 104.508C134.488 104.939 134.591 105.434 134.595 105.991C134.591 106.81 134.382 107.52 133.968 108.121C133.558 108.717 132.966 109.181 132.191 109.512C131.42 109.839 130.49 110.002 129.402 110.002C128.321 110.002 127.381 109.837 126.579 109.506C125.782 109.175 125.16 108.685 124.711 108.036C124.267 107.383 124.034 106.575 124.012 105.612H126.749C126.78 106.061 126.908 106.435 127.135 106.736C127.366 107.032 127.673 107.256 128.056 107.409C128.443 107.557 128.881 107.631 129.369 107.631C129.848 107.631 130.264 107.561 130.617 107.422C130.974 107.282 131.25 107.089 131.446 106.84C131.642 106.592 131.74 106.307 131.74 105.985C131.74 105.684 131.651 105.432 131.472 105.227C131.298 105.022 131.041 104.848 130.701 104.704C130.366 104.561 129.955 104.43 129.467 104.312L128.01 103.946C126.882 103.672 125.992 103.243 125.338 102.66C124.685 102.076 124.361 101.29 124.365 100.301C124.361 99.4913 124.576 98.7836 125.012 98.1782C125.451 97.5729 126.055 97.1004 126.821 96.7607C127.588 96.421 128.459 96.2511 129.434 96.2511C130.427 96.2511 131.294 96.421 132.034 96.7607C132.779 97.1004 133.358 97.5729 133.772 98.1782C134.186 98.7836 134.399 99.4847 134.412 100.282H131.701Z" fill="white"/>
</svg>
