<svg width="37" height="36" viewBox="0 0 37 36" fill="none" xmlns="http://www.w3.org/2000/svg">
<path d="M30.2856 26.4587C30.1926 25.6828 29.8661 24.9534 29.3493 24.3672C28.8325 23.7811 28.1498 23.3657 27.3916 23.1763L21.8645 21.6216V19.4774C22.9552 18.5832 23.9041 17.368 24.0902 16.0207H25.8487C26.2329 16.0207 26.6014 15.868 26.8731 15.5963C27.1448 15.3246 27.2975 14.9561 27.2975 14.5719V12.942C27.2967 12.6695 27.2189 12.4029 27.0731 12.1727C26.9273 11.9426 26.7195 11.7583 26.4735 11.6412C26.5074 11.3668 26.5255 11.0906 26.5278 10.8141C26.5278 8.02379 25.5096 3.34375 18.6953 3.34375C11.881 3.34375 10.8628 8.02379 10.8628 10.8141C10.8649 11.0906 10.8829 11.3668 10.9166 11.6412C10.6707 11.7584 10.463 11.9427 10.3172 12.1728C10.1715 12.403 10.0938 12.6696 10.0931 12.942V14.5719C10.0931 14.9561 10.2457 15.3246 10.5174 15.5963C10.7891 15.868 11.1576 16.0207 11.5419 16.0207H13.3017C13.4878 17.3644 14.4336 18.5773 15.527 19.4706V21.6216L10.013 23.174C9.25229 23.362 8.56675 23.7768 8.04736 24.3635C7.52798 24.9501 7.1993 25.6809 7.10497 26.4587L6.4743 31.8138C6.46026 31.933 6.49416 32.053 6.56854 32.1472C6.64291 32.2414 6.75167 32.3023 6.8709 32.3164C6.88848 32.3185 6.90617 32.3196 6.92387 32.3195C7.03469 32.3194 7.14161 32.2786 7.22438 32.205C7.30716 32.1313 7.36003 32.0298 7.373 31.9198L8.00367 26.5647C8.07648 25.9671 8.32986 25.406 8.72999 24.9563C9.13012 24.5066 9.65794 24.1897 10.243 24.0478L13.0215 23.2669L15.6021 27.1378C15.6374 27.1906 15.6833 27.2353 15.737 27.2692C15.7906 27.303 15.8508 27.3252 15.9136 27.3343C15.9352 27.3378 15.957 27.3395 15.9788 27.3393C16.0846 27.3394 16.1872 27.3024 16.2686 27.2347L18.2425 25.5894V28.6871C18.2425 28.8072 18.2902 28.9224 18.3751 29.0073C18.46 29.0922 18.5752 29.1399 18.6953 29.1399C18.8154 29.1399 18.9305 29.0922 19.0154 29.0073C19.1003 28.9224 19.148 28.8072 19.148 28.6871V25.5894L21.122 27.2347C21.2034 27.3024 21.3059 27.3394 21.4118 27.3393C21.4336 27.3395 21.4554 27.3378 21.477 27.3343C21.5397 27.3252 21.5999 27.303 21.6536 27.2692C21.7072 27.2353 21.7532 27.1906 21.7884 27.1378L24.3691 23.2646L27.1616 24.0519C27.7436 24.1954 28.2681 24.5126 28.6654 24.9615C29.0627 25.4104 29.3139 25.9696 29.3855 26.5647L30.0158 31.9198C30.0288 32.0301 30.0819 32.1318 30.165 32.2056C30.2482 32.2793 30.3556 32.3198 30.4667 32.3195C30.4845 32.3196 30.5024 32.3185 30.5201 32.3164C30.6393 32.3023 30.7481 32.2414 30.8225 32.1472C30.8969 32.053 30.9308 31.933 30.9167 31.8138L30.2856 26.4587ZM13.2954 11.4932H13.1423C13.2623 7.48502 14.9909 5.60748 18.5635 5.60748C21.9401 5.60748 23.6682 7.28536 23.9512 10.8526C23.8393 10.3788 23.57 9.95707 23.1873 9.65618C22.8047 9.35529 22.3313 9.19304 21.8446 9.19595C21.2181 9.21498 20.6031 9.36813 20.0408 9.64508C19.6231 9.85837 19.1647 9.98029 18.6962 10.0027C18.2277 9.98029 17.7693 9.85837 17.3515 9.64508C16.7893 9.36813 16.1742 9.21498 15.5478 9.19595C13.998 9.19595 13.4271 10.5166 13.2954 11.4932ZM26.392 14.5719C26.392 14.716 26.3347 14.8541 26.2328 14.956C26.131 15.0579 25.9928 15.1152 25.8487 15.1152H24.1282V12.3987H25.8487C25.9928 12.3987 26.131 12.4559 26.2328 12.5578C26.3347 12.6597 26.392 12.7979 26.392 12.942V14.5719ZM18.6953 4.24924C24.4203 4.24924 25.6223 7.8187 25.6223 10.8141C25.6208 11.041 25.6069 11.2677 25.5807 11.4932H24.8898C24.7621 6.9295 22.6921 4.70199 18.5635 4.70199C14.4349 4.70199 12.3659 6.9295 12.2373 11.4932H11.8104C11.7841 11.2677 11.7702 11.041 11.7687 10.8141C11.7683 7.8187 12.9703 4.24924 18.6953 4.24924ZM10.9986 14.5719V12.942C10.9986 12.7979 11.0558 12.6597 11.1577 12.5578C11.2596 12.4559 11.3978 12.3987 11.5419 12.3987H13.2623V15.1152H11.5419C11.3978 15.1152 11.2596 15.0579 11.1577 14.956C11.0558 14.8541 10.9986 14.716 10.9986 14.5719ZM14.1678 15.5475V11.9459C14.1678 11.8703 14.1936 10.1001 15.5469 10.1001C16.0512 10.1211 16.5452 10.2497 16.9957 10.4772C17.5242 10.7406 18.1033 10.8872 18.6935 10.9069C19.2837 10.8872 19.8627 10.7406 20.3913 10.4772C20.8418 10.2497 21.3358 10.1211 21.8401 10.1001C23.1969 10.1014 23.2227 11.8717 23.2227 11.9459V15.2542L21.0867 16.0551C20.8802 15.8142 20.5956 15.6537 20.2826 15.6017C19.9697 15.5497 19.6484 15.6095 19.3751 15.7706C19.1019 15.9318 18.8941 16.184 18.7882 16.4831C18.6823 16.7821 18.685 17.1089 18.7959 17.4061C18.9069 17.7033 19.1189 17.952 19.3948 18.1086C19.6707 18.2651 19.9929 18.3196 20.305 18.2623C20.617 18.205 20.8989 18.0398 21.1013 17.7955C21.3037 17.5511 21.4136 17.2434 21.4118 16.9261C21.4118 16.9175 21.4095 16.9098 21.409 16.9012L23.115 16.2615C22.5396 18.3555 19.6429 20.0954 18.7057 20.0954C17.6585 20.0954 14.1678 17.9457 14.1678 15.5484V15.5475ZM20.5063 16.9261C20.5063 17.0157 20.4797 17.1032 20.43 17.1777C20.3802 17.2521 20.3095 17.3102 20.2268 17.3444C20.1441 17.3787 20.053 17.3877 19.9652 17.3702C19.8774 17.3527 19.7967 17.3096 19.7334 17.2463C19.6701 17.183 19.6269 17.1023 19.6095 17.0145C19.592 16.9266 19.601 16.8356 19.6352 16.7529C19.6695 16.6702 19.7275 16.5994 19.802 16.5497C19.8764 16.5 19.964 16.4734 20.0535 16.4734C20.1736 16.4734 20.2888 16.5211 20.3737 16.606C20.4586 16.6909 20.5063 16.8061 20.5063 16.9261ZM18.7057 21.0009C19.5172 20.9013 20.2914 20.6022 20.959 20.1302V21.7189L18.6953 23.9827L16.4315 21.7189V20.123C17.1055 20.5989 17.8868 20.9005 18.7057 21.0009ZM16.0761 26.2165L13.9378 23.0088L15.8919 22.4596L18.0248 24.5925L16.0761 26.2165ZM21.3144 26.2165L19.3676 24.5925L21.5005 22.4596L23.4546 23.0088L21.3144 26.2165Z" fill="white"/>
<path d="M18.6953 30.0566C18.5752 30.0566 18.4601 30.1043 18.3752 30.1892C18.2903 30.2742 18.2426 30.3893 18.2426 30.5094V31.8676C18.2426 31.9877 18.2903 32.1029 18.3752 32.1878C18.4601 32.2727 18.5752 32.3204 18.6953 32.3204C18.8154 32.3204 18.9305 32.2727 19.0154 32.1878C19.1003 32.1029 19.148 31.9877 19.148 31.8676V30.5094C19.148 30.3893 19.1003 30.2742 19.0154 30.1892C18.9305 30.1043 18.8154 30.0566 18.6953 30.0566Z" fill="white"/>
</svg>
