<svg width="37" height="36" viewBox="0 0 37 36" fill="none" xmlns="http://www.w3.org/2000/svg">
<g clip-path="url(#clip0_2813_5678)">
<path d="M31.5688 27.702C30.9645 27.7024 30.3736 27.5236 29.8709 27.1882C29.3682 26.8528 28.9763 26.3758 28.7447 25.8176C28.5131 25.2594 28.4523 24.645 28.5699 24.0522C28.6876 23.4595 28.9784 22.9149 29.4055 22.4874C29.8327 22.0599 30.3771 21.7687 30.9698 21.6507C31.5625 21.5326 32.1768 21.593 32.7352 21.8241C33.2936 22.0553 33.7709 22.4469 34.1067 22.9493C34.4424 23.4518 34.6217 24.0425 34.6217 24.6469C34.6213 25.4566 34.2996 26.2331 33.7272 26.8059C33.1549 27.3787 32.3786 27.701 31.5688 27.702ZM31.5688 22.7062C31.1849 22.7058 30.8095 22.8193 30.4901 23.0322C30.1706 23.2452 29.9216 23.5481 29.7743 23.9027C29.6271 24.2573 29.5884 24.6475 29.663 25.0241C29.7376 25.4007 29.9223 25.7467 30.1936 26.0183C30.4649 26.29 30.8107 26.475 31.1872 26.5501C31.5637 26.6251 31.954 26.5868 32.3087 26.44C32.6635 26.2932 32.9667 26.0445 33.18 25.7253C33.3934 25.4061 33.5072 25.0308 33.5072 24.6469C33.507 24.1326 33.3028 23.6395 32.9394 23.2757C32.576 22.9118 32.0831 22.707 31.5688 22.7062ZM15.4694 27.702C14.8651 27.7026 14.2741 27.5239 13.7713 27.1885C13.2685 26.8532 12.8765 26.3763 12.6448 25.8181C12.4131 25.2599 12.3522 24.6455 12.4697 24.0527C12.5873 23.4599 12.878 22.9152 13.3051 22.4877C13.7323 22.0601 14.2766 21.7688 14.8694 21.6507C15.4621 21.5326 16.0765 21.5929 16.6349 21.8241C17.1933 22.0552 17.6706 22.4468 18.0065 22.9493C18.3423 23.4517 18.5216 24.0425 18.5216 24.6469C18.521 25.4564 18.1993 26.2327 17.6271 26.8055C17.055 27.3782 16.279 27.7006 15.4694 27.702ZM15.4694 22.7062C15.0855 22.7057 14.71 22.819 14.3905 23.0319C14.0709 23.2447 13.8217 23.5476 13.6744 23.9022C13.5271 24.2567 13.4882 24.647 13.5628 25.0237C13.6373 25.4003 13.8219 25.7464 14.0932 26.0181C14.3645 26.2898 14.7102 26.4749 15.0868 26.55C15.4633 26.6251 15.8536 26.5869 16.2084 26.4401C16.5632 26.2933 16.8665 26.0446 17.0798 25.7254C17.2932 25.4062 17.4071 25.0308 17.4071 24.6469C17.4067 24.1328 17.2025 23.6399 16.8393 23.2761C16.4761 22.9124 15.9835 22.7074 15.4694 22.7062Z" fill="white"/>
<path d="M35.5886 25.2056H34.0648C33.917 25.2056 33.7753 25.1469 33.6708 25.0424C33.5663 24.9379 33.5076 24.7961 33.5076 24.6484C33.5076 24.5006 33.5663 24.3588 33.6708 24.2543C33.7753 24.1498 33.917 24.0911 34.0648 24.0911H35.4311V21.1363C35.4307 20.7369 35.3285 20.3441 35.1339 19.9951L32.1175 14.5871C32.0917 14.5409 32.0541 14.5025 32.0085 14.4757C31.9629 14.4489 31.911 14.4348 31.8582 14.4348H27.7473V24.0934H29.0743C29.2221 24.0934 29.3638 24.1521 29.4683 24.2566C29.5728 24.3611 29.6315 24.5028 29.6315 24.6506C29.6315 24.7984 29.5728 24.9401 29.4683 25.0446C29.3638 25.1491 29.2221 25.2078 29.0743 25.2078H27.1901C27.0423 25.2078 26.9006 25.1491 26.7961 25.0446C26.6916 24.9401 26.6329 24.7984 26.6329 24.6506V13.8775C26.6329 13.7298 26.6916 13.588 26.7961 13.4835C26.9006 13.379 27.0423 13.3203 27.1901 13.3203H31.8582C32.1096 13.3202 32.3564 13.3872 32.5732 13.5144C32.7901 13.6416 32.969 13.8245 33.0915 14.044L36.1072 19.4528C36.3939 19.9676 36.5445 20.5471 36.5448 21.1363V24.2494C36.5444 24.5029 36.4436 24.7458 36.2643 24.9251C36.0851 25.1043 35.8421 25.2052 35.5886 25.2056ZM12.9741 25.2056H7.63145C7.48366 25.2056 7.34193 25.1469 7.23743 25.0424C7.13293 24.9379 7.07422 24.7961 7.07422 24.6484V20.3629C7.07422 20.2151 7.13293 20.0734 7.23743 19.9689C7.34193 19.8644 7.48366 19.8057 7.63145 19.8057C7.77923 19.8057 7.92096 19.8644 8.02546 19.9689C8.12996 20.0734 8.18867 20.2151 8.18867 20.3629V24.0911H12.9741C13.1219 24.0911 13.2637 24.1498 13.3682 24.2543C13.4727 24.3588 13.5314 24.5006 13.5314 24.6484C13.5314 24.7961 13.4727 24.9379 13.3682 25.0424C13.2637 25.1469 13.1219 25.2056 12.9741 25.2056ZM7.63145 18.3859C7.48366 18.3859 7.34193 18.3272 7.23743 18.2227C7.13293 18.1182 7.07422 17.9764 7.07422 17.8286V14.0871C7.07422 13.9393 7.13293 13.7975 7.23743 13.693C7.34193 13.5885 7.48366 13.5298 7.63145 13.5298C7.77923 13.5298 7.92096 13.5885 8.02546 13.693C8.12996 13.7975 8.18867 13.9393 8.18867 14.0871V17.8309C8.18808 17.9783 8.12911 18.1194 8.02468 18.2235C7.92024 18.3275 7.77885 18.3859 7.63145 18.3859Z" fill="white"/>
<path d="M27.1882 25.2051H17.9627C17.8149 25.2051 17.6732 25.1464 17.5687 25.0419C17.4642 24.9374 17.4055 24.7957 17.4055 24.6479C17.4055 24.5001 17.4642 24.3584 17.5687 24.2539C17.6732 24.1494 17.8149 24.0907 17.9627 24.0907H26.631V9.51289H8.18675V11.8079C8.18675 11.9557 8.12804 12.0974 8.02354 12.2019C7.91904 12.3064 7.77731 12.3651 7.62952 12.3651C7.48174 12.3651 7.34001 12.3064 7.23551 12.2019C7.13101 12.0974 7.0723 11.9557 7.0723 11.8079V9.41036C7.07269 9.14197 7.17953 8.8847 7.36938 8.69499C7.55923 8.50529 7.81658 8.39863 8.08496 8.39844H26.7335C27.0017 8.39883 27.2589 8.50557 27.4486 8.69526C27.6383 8.88494 27.745 9.1421 27.7454 9.41036V24.6479C27.7454 24.7957 27.6867 24.9374 27.5822 25.0419C27.4777 25.1464 27.336 25.2051 27.1882 25.2051ZM9.83243 20.9197H2.76011C2.61232 20.9197 2.47059 20.861 2.36609 20.7565C2.26159 20.652 2.20288 20.5102 2.20288 20.3625C2.20288 20.2147 2.26159 20.0729 2.36609 19.9684C2.47059 19.8639 2.61232 19.8052 2.76011 19.8052H9.83243C9.98021 19.8052 10.1219 19.8639 10.2264 19.9684C10.3309 20.0729 10.3897 20.2147 10.3897 20.3625C10.3897 20.5102 10.3309 20.652 10.2264 20.7565C10.1219 20.861 9.98021 20.9197 9.83243 20.9197Z" fill="white"/>
<path d="M15.469 18.3867H5.60018C5.45239 18.3867 5.31066 18.328 5.20616 18.2235C5.10166 18.119 5.04295 17.9772 5.04295 17.8295C5.04295 17.6817 5.10166 17.5399 5.20616 17.4354C5.31066 17.3309 5.45239 17.2722 5.60018 17.2722H15.469C15.6168 17.2722 15.7585 17.3309 15.863 17.4354C15.9675 17.5399 16.0263 17.6817 16.0263 17.8295C16.0263 17.9772 15.9675 18.119 15.863 18.2235C15.7585 18.328 15.6168 18.3867 15.469 18.3867ZM5.29333 15.4445H1.43955C1.29177 15.4445 1.15003 15.3858 1.04553 15.2813C0.941032 15.1768 0.882324 15.0351 0.882324 14.8873C0.882324 14.7395 0.941032 14.5978 1.04553 14.4933C1.15003 14.3888 1.29177 14.3301 1.43955 14.3301H5.29333C5.44112 14.3301 5.58285 14.3888 5.68735 14.4933C5.79185 14.5978 5.85056 14.7395 5.85056 14.8873C5.85056 15.0351 5.79185 15.1768 5.68735 15.2813C5.58285 15.3858 5.44112 15.4445 5.29333 15.4445ZM11.4726 12.3664H4.66998C4.52219 12.3664 4.38046 12.3077 4.27596 12.2032C4.17146 12.0987 4.11275 11.957 4.11275 11.8092C4.11275 11.6614 4.17146 11.5197 4.27596 11.4152C4.38046 11.3107 4.52219 11.252 4.66998 11.252H11.4726C11.6204 11.252 11.7621 11.3107 11.8666 11.4152C11.9711 11.5197 12.0298 11.6614 12.0298 11.8092C12.0298 11.957 11.9711 12.0987 11.8666 12.2032C11.7621 12.3077 11.6204 12.3664 11.4726 12.3664Z" fill="white"/>
</g>
<defs>
<clipPath id="clip0_2813_5678">
<rect width="35.6625" height="35.6625" fill="white" transform="translate(0.949463)"/>
</clipPath>
</defs>
</svg>
